<svg xmlns="http://www.w3.org/2000/svg" xmlns:xlink="http://www.w3.org/1999/xlink" width="500" zoomAndPan="magnify" viewBox="0 0 375 374.999991" height="500" preserveAspectRatio="xMidYMid meet" version="1.0"><defs><g/></defs><rect x="-37.5" width="450" fill="#ffffff" y="-37.499999" height="449.999989" fill-opacity="1"/><rect x="-37.5" width="450" fill="#ff66c4" y="-37.499999" height="449.999989" fill-opacity="1"/><g fill="#000000" fill-opacity="1"><g transform="translate(71.474069, 259.568369)"><g><path d="M 39.347656 -204.945312 L 41.398438 -177.890625 C 46.726562 -183.21875 52.875 -187.726562 59.84375 -191.828125 C 62.710938 -193.875 65.582031 -195.515625 68.859375 -197.15625 C 72.140625 -198.796875 75.007812 -200.023438 78.289062 -200.84375 C 81.15625 -202.074219 84.4375 -202.894531 88.125 -203.714844 C 89.765625 -204.125 91.816406 -204.535156 93.453125 -204.535156 C 95.09375 -204.535156 97.144531 -204.945312 99.191406 -205.355469 C 103.292969 -206.171875 107.390625 -206.582031 111.488281 -206.582031 C 113.539062 -206.582031 115.589844 -206.992188 118.046875 -206.992188 L 125.015625 -206.992188 C 128.703125 -206.992188 133.214844 -206.582031 138.132812 -206.582031 C 143.050781 -206.171875 147.96875 -205.761719 153.296875 -204.945312 C 158.214844 -204.125 163.136719 -202.894531 168.054688 -201.253906 C 172.972656 -199.613281 177.070312 -197.976562 180.351562 -195.925781 C 187.320312 -191.828125 192.648438 -186.5 196.746094 -179.121094 C 200.433594 -171.742188 203.304688 -163.546875 205.355469 -154.9375 C 207.402344 -146.328125 208.632812 -137.722656 209.042969 -129.113281 C 209.453125 -120.097656 209.863281 -112.308594 209.863281 -105.75 C 209.863281 -86.894531 208.222656 -70.5 205.761719 -56.972656 C 202.894531 -43.039062 197.566406 -31.972656 190.1875 -23.363281 C 182.808594 -14.347656 172.152344 -8.199219 159.035156 -4.097656 C 145.921875 0 128.703125 2.050781 107.390625 2.050781 L 95.503906 2.050781 C 91.816406 2.050781 88.535156 2.050781 85.257812 1.640625 C 77.058594 0.820312 69.679688 -0.820312 62.710938 -2.460938 C 55.335938 -4.097656 48.777344 -7.378906 42.21875 -13.117188 L 42.21875 63.53125 C 42.21875 65.992188 42.628906 68.453125 42.628906 70.5 L 42.628906 76.238281 C 42.628906 77.878906 43.039062 79.519531 43.039062 80.746094 L 43.039062 84.4375 C 43.859375 88.535156 44.679688 90.175781 45.496094 90.175781 L 45.90625 90.175781 L 45.90625 94.273438 L 18.445312 94.273438 L 18.445312 90.175781 L 18.855469 90.175781 C 20.085938 90.175781 20.902344 88.535156 20.902344 84.847656 C 21.3125 83.617188 21.722656 82.386719 21.722656 81.15625 L 21.722656 -179.941406 C 21.722656 -183.21875 21.3125 -185.269531 21.3125 -186.089844 C 21.3125 -188.136719 20.902344 -189.367188 20.496094 -190.1875 C 20.496094 -190.597656 20.085938 -191.417969 19.675781 -192.648438 C 19.675781 -193.46875 19.265625 -194.695312 18.445312 -195.925781 L 18.445312 -198.386719 L 35.25 -204.945312 Z M 68.453125 -189.367188 C 62.710938 -187.726562 57.792969 -186.089844 53.695312 -183.628906 C 49.597656 -181.171875 45.496094 -178.300781 41.398438 -175.023438 L 41.808594 -168.875 L 42.21875 -168.875 L 42.21875 -55.335938 C 43.039062 -46.316406 44.679688 -38.121094 47.136719 -30.742188 C 50.417969 -24.183594 54.105469 -18.855469 58.203125 -15.574219 C 62.304688 -11.886719 66.8125 -9.015625 71.730469 -7.378906 C 76.648438 -5.738281 82.386719 -4.507812 88.125 -4.097656 C 93.863281 -3.6875 100.421875 -3.6875 107.390625 -3.6875 C 120.917969 -3.6875 134.035156 -4.917969 146.738281 -7.789062 C 156.578125 -10.65625 164.363281 -14.757812 170.101562 -20.085938 C 175.839844 -25.414062 179.941406 -31.5625 182.808594 -38.9375 C 185.679688 -46.316406 187.320312 -54.105469 188.136719 -62.710938 C 188.957031 -71.320312 189.367188 -80.339844 189.367188 -89.765625 L 189.367188 -104.113281 C 189.367188 -108.621094 188.957031 -113.128906 188.546875 -117.226562 C 188.136719 -121.328125 187.726562 -125.015625 187.320312 -128.703125 C 186.910156 -132.394531 186.5 -136.082031 185.679688 -139.363281 C 183.21875 -153.296875 178.710938 -163.953125 172.5625 -171.332031 C 169.285156 -176.25 164.773438 -179.941406 159.855469 -182.808594 C 154.9375 -185.679688 149.609375 -187.726562 143.871094 -189.367188 C 138.132812 -191.007812 131.984375 -191.828125 126.246094 -192.238281 C 120.097656 -192.648438 114.359375 -193.058594 109.03125 -193.058594 L 90.996094 -193.058594 C 89.355469 -193.058594 87.714844 -192.648438 86.078125 -192.238281 C 82.796875 -191.828125 79.519531 -191.417969 76.648438 -191.007812 C 73.371094 -190.597656 70.910156 -190.1875 68.453125 -189.367188 Z M 68.453125 -189.367188 "/></g></g></g></svg>